<svg width="248" height="42" viewBox="0 0 248 42" fill="none" xmlns="http://www.w3.org/2000/svg">
<path d="M19.984 7.232C19.6293 8.48266 19.2187 9.93866 18.752 11.6C18.304 13.2427 17.8187 14.9973 17.296 16.864C16.792 18.712 16.288 20.5787 15.784 22.464C15.28 24.3307 14.7947 26.1227 14.328 27.84C13.88 29.5387 13.488 31.06 13.152 32.404C12.816 33.748 12.5547 34.8213 12.368 35.624C12.2373 36.24 12.3027 36.7627 12.564 37.192C12.844 37.6027 13.3667 37.9107 14.132 38.116C14.916 38.3213 15.9707 38.424 17.296 38.424C20.3387 38.424 22.7933 37.7893 24.66 36.52C26.5267 35.232 27.6467 33.384 28.02 30.976C28.3933 28.7173 27.9733 26.9907 26.76 25.796C25.5467 24.6013 23.652 24.004 21.076 24.004H13.236L14.02 21.68H20.404C22.2707 21.68 23.96 21.2787 25.472 20.476C26.984 19.6733 28.2253 18.544 29.196 17.088C30.1853 15.632 30.8107 13.9333 31.072 11.992C31.4453 9.528 31.016 7.652 29.784 6.364C28.552 5.05733 26.7507 4.404 24.38 4.404C22.9987 4.404 21.9813 4.628 21.328 5.076C20.6933 5.524 20.2453 6.24266 19.984 7.232ZM12.564 1.8H24.94C29.3827 1.8 32.5933 2.724 34.572 4.572C36.5693 6.40133 37.3627 8.94 36.952 12.188C36.6907 14.26 35.9347 16.0987 34.684 17.704C33.4333 19.2907 31.8 20.5413 29.784 21.456C27.768 22.352 25.472 22.8 22.896 22.8L22.728 22.324C25.584 22.324 27.8893 22.6973 29.644 23.444C31.4173 24.172 32.668 25.208 33.396 26.552C34.124 27.8773 34.3667 29.436 34.124 31.228C33.7133 34.2333 32.08 36.6133 29.224 38.368C26.3867 40.1227 22.3733 41 17.184 41H2.54C1.94267 41 1.532 40.888 1.308 40.664C1.084 40.4213 0.972 40.1227 0.972 39.768C0.972 39.432 1.112 39.1427 1.392 38.9C1.672 38.6387 2.08267 38.4427 2.624 38.312L4.052 37.976C4.63067 37.808 5.07867 37.5747 5.396 37.276C5.732 36.9587 5.984 36.5387 6.152 36.016C6.52533 34.7467 6.92667 33.356 7.356 31.844C7.804 30.332 8.252 28.7547 8.7 27.112C9.16667 25.4507 9.624 23.7893 10.072 22.128C10.5387 20.448 10.9773 18.8333 11.388 17.284C11.7987 15.716 12.172 14.2693 12.508 12.944C12.8627 11.6 13.1613 10.4333 13.404 9.444C13.6467 8.45466 13.824 7.708 13.936 7.204C14.0853 6.45733 14.1133 5.916 14.02 5.58C13.9267 5.244 13.6373 4.992 13.152 4.824L11.584 4.488C11.2293 4.35733 10.9493 4.208 10.744 4.04C10.5573 3.85333 10.464 3.61067 10.464 3.312C10.464 2.88266 10.632 2.528 10.968 2.248C11.3227 1.94933 11.8547 1.8 12.564 1.8ZM54.6738 15.184C56.8951 15.2587 58.7431 15.828 60.2178 16.892C61.6925 17.956 62.7285 19.4213 63.3258 21.288C63.9418 23.136 64.0445 25.3013 63.6338 27.784C63.2978 29.9493 62.6631 31.9 61.7298 33.636C60.7965 35.3533 59.6298 36.8187 58.2298 38.032C56.8485 39.2453 55.2898 40.16 53.5538 40.776C51.8178 41.3733 49.9698 41.6347 48.0098 41.56C45.8818 41.4667 44.0805 40.9067 42.6058 39.88C41.1311 38.8533 40.0858 37.4067 39.4698 35.54C38.8538 33.6733 38.7511 31.48 39.1618 28.96C39.4791 26.9627 40.0765 25.1147 40.9538 23.416C41.8311 21.7173 42.9418 20.2333 44.2858 18.964C45.6298 17.6947 47.1791 16.724 48.9338 16.052C50.6885 15.38 52.6018 15.0907 54.6738 15.184ZM48.7938 38.788C49.5218 38.844 50.2498 38.7227 50.9778 38.424C51.7245 38.1067 52.4431 37.6307 53.1338 36.996C53.8245 36.3427 54.4685 35.54 55.0658 34.588C55.6631 33.6173 56.1858 32.5067 56.6338 31.256C57.1005 29.9867 57.4738 28.5867 57.7538 27.056C58.1085 25.0773 58.1645 23.4253 57.9218 22.1C57.6978 20.756 57.2405 19.7387 56.5498 19.048C55.8591 18.3573 55.0098 17.984 54.0018 17.928C53.2178 17.872 52.4431 18.0213 51.6778 18.376C50.9125 18.712 50.1751 19.2347 49.4658 19.944C48.7751 20.6347 48.1311 21.4747 47.5338 22.464C46.9551 23.4533 46.4418 24.564 45.9938 25.796C45.5645 27.028 45.2285 28.3533 44.9858 29.772C44.6125 31.7693 44.5471 33.4307 44.7898 34.756C45.0325 36.0627 45.4991 37.052 46.1898 37.724C46.8991 38.3773 47.7671 38.732 48.7938 38.788ZM82.8926 15.184C85.1139 15.2587 86.9619 15.828 88.4366 16.892C89.9112 17.956 90.9472 19.4213 91.5446 21.288C92.1606 23.136 92.2632 25.3013 91.8526 27.784C91.5166 29.9493 90.8819 31.9 89.9486 33.636C89.0152 35.3533 87.8486 36.8187 86.4486 38.032C85.0672 39.2453 83.5086 40.16 81.7726 40.776C80.0366 41.3733 78.1886 41.6347 76.2286 41.56C74.1006 41.4667 72.2992 40.9067 70.8246 39.88C69.3499 38.8533 68.3046 37.4067 67.6886 35.54C67.0726 33.6733 66.9699 31.48 67.3806 28.96C67.6979 26.9627 68.2952 25.1147 69.1726 23.416C70.0499 21.7173 71.1606 20.2333 72.5046 18.964C73.8486 17.6947 75.3979 16.724 77.1526 16.052C78.9072 15.38 80.8206 15.0907 82.8926 15.184ZM77.0126 38.788C77.7406 38.844 78.4686 38.7227 79.1966 38.424C79.9432 38.1067 80.6619 37.6307 81.3526 36.996C82.0432 36.3427 82.6872 35.54 83.2846 34.588C83.8819 33.6173 84.4046 32.5067 84.8526 31.256C85.3192 29.9867 85.6926 28.5867 85.9726 27.056C86.3272 25.0773 86.3832 23.4253 86.1406 22.1C85.9166 20.756 85.4592 19.7387 84.7686 19.048C84.0779 18.3573 83.2286 17.984 82.2206 17.928C81.4366 17.872 80.6619 18.0213 79.8966 18.376C79.1312 18.712 78.3939 19.2347 77.6846 19.944C76.9939 20.6347 76.3499 21.4747 75.7526 22.464C75.1739 23.4533 74.6606 24.564 74.2126 25.796C73.7832 27.028 73.4472 28.3533 73.2046 29.772C72.8312 31.7693 72.7659 33.4307 73.0086 34.756C73.2512 36.0627 73.7179 37.052 74.4086 37.724C75.1179 38.3773 75.9859 38.732 77.0126 38.788ZM103.18 26.3L102.368 26.16C103.096 24.424 103.992 22.8653 105.056 21.484C106.139 20.1027 107.315 18.936 108.584 17.984C109.872 17.032 111.198 16.3133 112.56 15.828C113.942 15.324 115.295 15.1 116.62 15.156C118.375 15.2307 119.719 15.7347 120.652 16.668C121.586 17.6013 121.94 18.908 121.716 20.588C121.548 22.2307 120.671 23.78 119.084 25.236C117.516 26.6733 115.211 27.9707 112.168 29.128C109.126 30.2853 105.308 31.2747 100.716 32.096L100.744 30.108C104.366 29.4173 107.268 28.6333 109.452 27.756C111.655 26.8787 113.279 25.9267 114.324 24.9C115.388 23.8547 116.014 22.7533 116.2 21.596C116.368 20.6253 116.228 19.86 115.78 19.3C115.351 18.74 114.67 18.432 113.736 18.376C112.784 18.3013 111.739 18.5533 110.6 19.132C109.462 19.692 108.342 20.504 107.24 21.568C106.158 22.6133 105.178 23.8267 104.3 25.208C103.442 26.5893 102.798 28.0733 102.368 29.66C101.883 31.34 101.528 32.628 101.304 33.524C101.08 34.4013 100.931 35.0547 100.856 35.484C100.8 35.8947 100.772 36.2493 100.772 36.548C100.772 37.108 100.819 37.5653 100.912 37.92C101.006 38.2747 101.052 38.6667 101.052 39.096C101.052 39.5813 100.866 40.0107 100.492 40.384C100.138 40.7387 99.643 41.0093 99.0083 41.196C98.3923 41.4013 97.6736 41.504 96.8523 41.504C96.1056 41.504 95.5363 41.336 95.1443 41C94.771 40.664 94.575 40.1507 94.5563 39.46C94.5376 38.7693 94.6683 37.9107 94.9483 36.884L101.472 13.756C102.331 10.6947 103.591 8.20267 105.252 6.28C106.932 4.35733 108.976 2.93866 111.384 2.024C113.792 1.10933 116.518 0.651997 119.56 0.651997C121.408 0.651997 122.771 0.978665 123.648 1.632C124.526 2.26666 124.964 3.032 124.964 3.928C124.964 4.69333 124.694 5.33733 124.152 5.86C123.611 6.364 122.846 6.616 121.856 6.616C121.24 6.616 120.643 6.48533 120.064 6.224C119.504 5.96266 118.954 5.65466 118.412 5.3C117.89 4.94533 117.358 4.63733 116.816 4.376C116.294 4.096 115.743 3.956 115.164 3.956C114.026 3.956 112.943 4.236 111.916 4.796C110.908 5.33733 110.003 6.21467 109.2 7.428C108.398 8.64133 107.726 10.2373 107.184 12.216C106.755 13.784 106.335 15.2587 105.924 16.64C105.532 18.0213 105.159 19.3 104.804 20.476C104.45 21.652 104.132 22.7253 103.852 23.696C103.591 24.6667 103.367 25.5347 103.18 26.3ZM106.876 29.968L111.608 28.764L113.568 34.644C113.867 35.5587 114.184 36.1933 114.52 36.548C114.875 36.9027 115.286 37.108 115.752 37.164C116.163 37.2013 116.536 37.1173 116.872 36.912C117.208 36.688 117.516 36.3707 117.796 35.96C118.002 35.7547 118.198 35.6147 118.384 35.54C118.59 35.4467 118.786 35.428 118.972 35.484C119.234 35.5587 119.411 35.7267 119.504 35.988C119.616 36.2493 119.607 36.6413 119.476 37.164C119.252 38.0227 118.842 38.7973 118.244 39.488C117.666 40.16 116.947 40.6827 116.088 41.056C115.23 41.4293 114.287 41.588 113.26 41.532C112.196 41.4573 111.338 41.0747 110.684 40.384C110.05 39.6933 109.518 38.6293 109.088 37.192L106.876 29.968Z" fill="#040832"/>
<path d="M140.616 16.136V34.532C140.616 35.3907 140.672 35.988 140.784 36.324C140.896 36.66 141.101 36.912 141.4 37.08L141.988 37.416C142.604 37.8267 142.912 38.3867 142.912 39.096C142.912 40.3653 142.268 41 140.98 41H129.64C128.987 41 128.473 40.832 128.1 40.496C127.727 40.16 127.54 39.7027 127.54 39.124C127.54 38.676 127.633 38.3027 127.82 38.004C128.025 37.6867 128.324 37.416 128.716 37.192L129.304 36.912C129.584 36.7627 129.789 36.5293 129.92 36.212C130.051 35.8947 130.116 35.3347 130.116 34.532V22.996C130.116 22.324 130.032 21.8573 129.864 21.596C129.696 21.316 129.453 21.1107 129.136 20.98L128.464 20.812C128.072 20.6067 127.773 20.3827 127.568 20.14C127.381 19.8787 127.288 19.5427 127.288 19.132C127.288 18.6653 127.428 18.2733 127.708 17.956C127.988 17.62 128.455 17.3307 129.108 17.088L135.016 14.904C135.856 14.568 136.528 14.3347 137.032 14.204C137.555 14.0547 138.077 13.98 138.6 13.98C139.235 13.98 139.729 14.1853 140.084 14.596C140.439 14.988 140.616 15.5013 140.616 16.136ZM139.692 23.36L137.956 21.4L139.132 20.28C141.521 18.0027 143.593 16.3787 145.348 15.408C147.103 14.4373 148.745 13.952 150.276 13.952C152.535 13.952 154.28 14.6893 155.512 16.164C156.744 17.6387 157.481 19.6173 157.724 22.1L159.012 34.532C159.105 35.316 159.199 35.8667 159.292 36.184C159.385 36.5013 159.563 36.744 159.824 36.912L160.412 37.192C160.804 37.4347 161.103 37.7053 161.308 38.004C161.513 38.3027 161.616 38.676 161.616 39.124C161.616 39.7027 161.429 40.16 161.056 40.496C160.683 40.832 160.16 41 159.488 41H148.036C146.729 41 146.076 40.3653 146.076 39.096C146.076 38.368 146.393 37.808 147.028 37.416L147.644 37.08C147.924 36.912 148.139 36.6693 148.288 36.352C148.456 36.016 148.493 35.428 148.4 34.588L147.392 24.592C147.261 23.36 146.963 22.436 146.496 21.82C146.029 21.204 145.311 20.896 144.34 20.896C143.743 20.896 143.136 21.0267 142.52 21.288C141.923 21.5307 141.297 21.9413 140.644 22.52L139.692 23.36ZM178.562 13.952C181.548 13.952 184.152 14.5493 186.374 15.744C188.614 16.92 190.35 18.5627 191.582 20.672C192.832 22.7627 193.458 25.18 193.458 27.924C193.458 30.5187 192.814 32.8613 191.526 34.952C190.238 37.024 188.446 38.6667 186.15 39.88C183.854 41.0933 181.194 41.7 178.17 41.7C175.202 41.7 172.598 41.112 170.358 39.936C168.136 38.7413 166.4 37.0987 165.15 35.008C163.918 32.8987 163.302 30.4533 163.302 27.672C163.302 25.096 163.946 22.7813 165.234 20.728C166.522 18.656 168.304 17.0133 170.582 15.8C172.878 14.568 175.538 13.952 178.562 13.952ZM180.55 37.108C181.296 36.94 181.875 36.4453 182.286 35.624C182.715 34.8027 182.939 33.6733 182.958 32.236C182.995 30.78 182.771 29.0253 182.286 26.972C181.819 24.8627 181.259 23.1547 180.606 21.848C179.971 20.5413 179.28 19.6173 178.534 19.076C177.787 18.516 177.031 18.3293 176.266 18.516C175.538 18.684 174.959 19.1693 174.53 19.972C174.1 20.7747 173.867 21.8947 173.83 23.332C173.811 24.7693 174.035 26.552 174.502 28.68C174.987 30.7707 175.547 32.4693 176.182 33.776C176.835 35.0827 177.535 36.0067 178.282 36.548C179.028 37.0893 179.784 37.276 180.55 37.108ZM197.288 18.768L196.476 18.46C196.065 18.2547 195.757 18.0027 195.552 17.704C195.346 17.4053 195.244 17.032 195.244 16.584C195.244 16.024 195.44 15.5667 195.832 15.212C196.224 14.8573 196.728 14.68 197.344 14.68H198.604C198.958 14.68 199.294 14.568 199.612 14.344C199.929 14.1013 200.302 13.7 200.732 13.14L203.812 9.444C204.278 8.828 204.782 8.34266 205.324 7.988C205.884 7.61467 206.416 7.428 206.92 7.428C207.554 7.428 208.058 7.624 208.432 8.016C208.824 8.38933 209.02 8.94933 209.02 9.696V31.088C209.02 32.3387 209.244 33.2813 209.692 33.916C210.158 34.532 210.84 34.84 211.736 34.84C212.277 34.84 212.744 34.728 213.136 34.504C213.528 34.2613 213.873 33.9813 214.172 33.664C214.47 33.328 214.75 33.0293 215.012 32.768C215.292 32.5067 215.59 32.3573 215.908 32.32C216.225 32.32 216.486 32.4507 216.692 32.712C216.897 32.9733 216.99 33.3653 216.972 33.888C216.953 35.288 216.524 36.5853 215.684 37.78C214.844 38.956 213.714 39.8987 212.296 40.608C210.877 41.3173 209.281 41.672 207.508 41.672C204.614 41.672 202.393 40.9813 200.844 39.6C199.313 38.2187 198.548 36.0813 198.548 33.188V20.84C198.548 20.1867 198.445 19.7293 198.24 19.468C198.034 19.188 197.717 18.9547 197.288 18.768ZM205.38 19.104V14.68H215.04C215.656 14.68 216.141 14.82 216.496 15.1C216.85 15.38 217.028 15.7907 217.028 16.332C217.028 17.116 216.673 17.7787 215.964 18.32C215.273 18.8427 214.125 19.104 212.52 19.104H205.38ZM246.019 24.312C246.019 25.6187 245.646 26.6267 244.899 27.336C244.152 28.0453 243.098 28.4 241.735 28.4H225.859V25.432H233.979C235.062 25.432 235.603 24.8907 235.603 23.808C235.603 21.9227 235.276 20.5413 234.623 19.664C233.97 18.768 233.186 18.32 232.271 18.32C231.562 18.32 230.908 18.5533 230.311 19.02C229.732 19.468 229.266 20.1773 228.911 21.148C228.575 22.1 228.407 23.3413 228.407 24.872C228.407 28.1387 229.154 30.5653 230.647 32.152C232.14 33.7387 234.128 34.532 236.611 34.532C237.918 34.532 239.122 34.2987 240.223 33.832C241.343 33.3467 242.295 32.656 243.079 31.76C243.508 31.3867 243.844 31.1347 244.087 31.004C244.348 30.8547 244.6 30.78 244.843 30.78C245.142 30.7987 245.394 30.9387 245.599 31.2C245.823 31.4427 245.935 31.8253 245.935 32.348C245.916 33.9907 245.384 35.5307 244.339 36.968C243.294 38.3867 241.828 39.5347 239.943 40.412C238.058 41.2707 235.855 41.7 233.335 41.7C230.479 41.7 227.978 41.14 225.831 40.02C223.684 38.9 222.014 37.332 220.819 35.316C219.624 33.3 219.027 30.9573 219.027 28.288C219.027 25.488 219.596 23.0147 220.735 20.868C221.874 18.7213 223.535 17.032 225.719 15.8C227.922 14.568 230.591 13.952 233.727 13.952C236.303 13.952 238.506 14.4187 240.335 15.352C242.183 16.2667 243.592 17.508 244.563 19.076C245.534 20.644 246.019 22.3893 246.019 24.312Z" fill="#040832"/>
</svg>
